<svg width="69" height="69" viewBox="0 0 69 69" fill="none" xmlns="http://www.w3.org/2000/svg">
<path d="M34.5505 8.625C33.0092 8.625 31.4678 8.64185 29.9264 8.68396C21.9921 8.89453 13.9482 10.3433 6.46875 12.9375L8.625 15.0938C14.959 12.8112 22.0931 11.4972 30.019 11.2529C33.026 11.1603 36.0751 11.1603 39.082 11.2529C47.0079 11.4972 54.041 12.8112 60.375 15.0938L62.5312 12.9375C55.0518 10.3433 47.109 8.89453 39.1747 8.68396C37.6333 8.64185 36.0919 8.625 34.5505 8.625ZM27.9218 14.9758C22.7333 14.9169 15.6749 15.2201 10.7812 17.25C11.6825 19.002 15.1022 21.0066 17.25 21.5625C17.3679 18.1176 23.4661 17.25 28.0312 17.25L34.5 62.5312L40.9688 17.25C45.5255 17.25 51.6237 18.1176 51.75 21.5625C53.9062 21.0066 57.3175 19.002 58.2188 17.25C51.691 14.5378 41.3309 14.9084 36.6562 15.0938L34.5 17.25L32.3438 15.0938C31.173 15.0516 29.6484 14.9927 27.9218 14.9758Z" fill="white"/>
</svg>
